<svg width="136" height="62" viewBox="0 0 136 62" fill="none" xmlns="http://www.w3.org/2000/svg">
<path d="M23.8443 6.49271C22.483 4.37596 20.5177 2.73573 18.0032 1.61887C15.5869 0.544752 12.7413 0 9.5456 0H2.36194C1.73585 0.00109032 1.13571 0.250286 0.692999 0.692999C0.250286 1.13571 0.00109032 1.73585 0 2.36194V8.25929C0 8.35992 0.0399654 8.45642 0.111119 8.52757C0.182272 8.59872 0.278788 8.63871 0.379414 8.63871H0.382416C0.475421 8.63886 0.565222 8.60478 0.634712 8.54297C0.704202 8.48115 0.748513 8.39591 0.759194 8.30352C0.951898 6.56918 2.42567 5.63942 3.74911 5.63942V3.74761H9.5471C12.215 3.74761 14.548 4.18363 16.4829 5.0433C18.3436 5.87035 19.7211 7.00746 20.6932 8.51948C21.668 10.0386 22.1437 11.8187 22.1437 13.9639C22.1437 16.0795 21.668 17.8547 20.6894 19.3908C19.7169 20.9166 18.341 22.0598 16.4829 22.8853C14.5499 23.7446 12.2168 24.1802 9.5471 24.1802H9.02559C6.63185 24.1802 4.33617 25.1312 2.64354 26.8238C0.950913 28.5164 0 30.8121 0 33.2058V47.8371H0.0296194C-0.0119948 48.1044 0.00474166 48.3776 0.0786983 48.6379C0.152655 48.8981 0.282076 49.1393 0.458057 49.3448C0.634039 49.5503 0.852414 49.7152 1.09819 49.8283C1.34396 49.9414 1.61131 50 1.88186 50C2.15241 50 2.41975 49.9414 2.66553 49.8283C2.9113 49.7152 3.12969 49.5503 3.30568 49.3448C3.48166 49.1393 3.61106 48.8981 3.68502 48.6379C3.75897 48.3776 3.77573 48.1044 3.73411 47.8371H3.74911V33.2081C3.74911 30.2988 6.11628 27.9316 9.02559 27.9316H9.5471C12.7436 27.9316 15.5892 27.3872 18.0043 26.3135C20.5215 25.1955 22.4879 23.5448 23.8503 21.4078C25.2049 19.2809 25.8917 16.7773 25.8917 13.9662C25.8902 11.121 25.2019 8.60758 23.8443 6.49271Z" fill="#380943"/>
<path d="M4.76489 12.25C6.07657 12.25 7.13989 11.1867 7.13989 9.875C7.13989 8.56332 6.07657 7.5 4.76489 7.5C3.45322 7.5 2.38989 8.56332 2.38989 9.875C2.38989 11.1867 3.45322 12.25 4.76489 12.25Z" fill="#F3F1F4"/>
<path d="M29.367 30.39H32.919V50H29.367V30.39ZM31.143 26.616C30.4523 26.616 29.8727 26.394 29.404 25.95C28.96 25.506 28.738 24.9633 28.738 24.322C28.738 23.6807 28.96 23.138 29.404 22.694C29.8727 22.2253 30.4523 21.991 31.143 21.991C31.8337 21.991 32.401 22.213 32.845 22.657C33.3137 23.0763 33.548 23.6067 33.548 24.248C33.548 24.914 33.3137 25.4813 32.845 25.95C32.401 26.394 31.8337 26.616 31.143 26.616ZM50.727 48.853C50.209 49.297 49.5677 49.6423 48.803 49.889C48.0383 50.111 47.249 50.222 46.435 50.222C44.4617 50.222 42.9323 49.6917 41.847 48.631C40.7617 47.5703 40.219 46.0533 40.219 44.08V33.313H36.889V30.39H40.219V26.098H43.771V30.39H49.395V33.313H43.771V43.932C43.771 44.9927 44.03 45.8067 44.548 46.374C45.0907 46.9413 45.8553 47.225 46.842 47.225C47.9273 47.225 48.8523 46.9167 49.617 46.3L50.727 48.853ZM62.9179 50.222C60.9199 50.222 59.1316 49.7903 57.5529 48.927C55.9989 48.0637 54.7779 46.8797 53.8899 45.375C53.0019 43.8457 52.5579 42.119 52.5579 40.195C52.5579 38.271 53.0019 36.5567 53.8899 35.052C54.7779 33.5227 55.9989 32.3387 57.5529 31.5C59.1316 30.6367 60.9199 30.205 62.9179 30.205C64.6939 30.205 66.2726 30.5627 67.6539 31.278C69.0599 31.9933 70.1452 33.0293 70.9099 34.386L68.2089 36.125C67.5922 35.1877 66.8276 34.4847 65.9149 34.016C65.0022 33.5473 63.9909 33.313 62.8809 33.313C61.5982 33.313 60.4389 33.5967 59.4029 34.164C58.3916 34.7313 57.5899 35.5453 56.9979 36.606C56.4306 37.642 56.1469 38.8383 56.1469 40.195C56.1469 41.5763 56.4306 42.7973 56.9979 43.858C57.5899 44.894 58.3916 45.6957 59.4029 46.263C60.4389 46.8303 61.5982 47.114 62.8809 47.114C63.9909 47.114 65.0022 46.8797 65.9149 46.411C66.8276 45.9423 67.5922 45.2393 68.2089 44.302L70.9099 46.004C70.1452 47.3607 69.0599 48.409 67.6539 49.149C66.2726 49.8643 64.6939 50.222 62.9179 50.222ZM85.7267 30.205C88.218 30.205 90.1913 30.9327 91.6467 32.388C93.1267 33.8187 93.8667 35.9277 93.8667 38.715V50H90.3147V39.122C90.3147 37.2227 89.8583 35.792 88.9457 34.83C88.033 33.868 86.7257 33.387 85.0237 33.387C83.0997 33.387 81.5827 33.9543 80.4727 35.089C79.3627 36.199 78.8077 37.8023 78.8077 39.899V50H75.2557V22.546H78.8077V33.165C79.5477 32.2277 80.5097 31.5 81.6937 30.982C82.9023 30.464 84.2467 30.205 85.7267 30.205ZM118.272 40.306C118.272 40.5773 118.247 40.935 118.198 41.379H102.288C102.51 43.1057 103.262 44.4993 104.545 45.56C105.852 46.596 107.468 47.114 109.392 47.114C111.735 47.114 113.622 46.3247 115.053 44.746L117.014 47.04C116.126 48.076 115.016 48.8653 113.684 49.408C112.376 49.9507 110.909 50.222 109.281 50.222C107.209 50.222 105.371 49.8027 103.768 48.964C102.164 48.1007 100.919 46.9043 100.031 45.375C99.1673 43.8457 98.7356 42.119 98.7356 40.195C98.7356 38.2957 99.155 36.5813 99.9936 35.052C100.857 33.5227 102.029 32.3387 103.509 31.5C105.013 30.6367 106.703 30.205 108.578 30.205C110.452 30.205 112.117 30.6367 113.573 31.5C115.053 32.3387 116.2 33.5227 117.014 35.052C117.852 36.5813 118.272 38.3327 118.272 40.306ZM108.578 33.202C106.876 33.202 105.445 33.72 104.286 34.756C103.151 35.792 102.485 37.1487 102.288 38.826H114.868C114.67 37.1733 113.992 35.829 112.833 34.793C111.698 33.7323 110.28 33.202 108.578 33.202ZM126.608 33.683C127.225 32.5483 128.137 31.685 129.346 31.093C130.555 30.501 132.022 30.205 133.749 30.205V33.646C133.552 33.6213 133.28 33.609 132.935 33.609C131.011 33.609 129.494 34.1887 128.384 35.348C127.299 36.4827 126.756 38.1107 126.756 40.232V50H123.204V30.39H126.608V33.683Z" fill="#F3F1F4"/>
</svg>
